<?xml version="1.0" standalone="no"?>
<!DOCTYPE svg PUBLIC "-//W3C//DTD SVG 20010904//EN"
 "http://www.w3.org/TR/2001/REC-SVG-20010904/DTD/svg10.dtd">
<svg version="1.0" xmlns="http://www.w3.org/2000/svg"
 width="1006.000000pt" height="1006.000000pt" viewBox="0 0 1006.000000 1006.000000"
 preserveAspectRatio="xMidYMid meet">
<metadata>
Created by potrace 1.14, written by Peter Selinger 2001-2017
</metadata>
<g transform="translate(0.000000,1006.000000) scale(0.100000,-0.100000)"
fill="#000000" stroke="none">
<path d="M4267 10053 c-2 -1 -127 -5 -277 -8 -370 -7 -619 -15 -925 -30 -55
-3 -149 -7 -210 -10 -60 -3 -144 -7 -185 -10 -41 -2 -120 -6 -175 -10 -55 -3
-129 -7 -165 -10 -36 -2 -103 -7 -150 -10 -47 -3 -107 -7 -135 -10 -27 -3 -86
-7 -130 -11 -171 -12 -282 -22 -360 -30 -22 -2 -67 -6 -100 -9 -33 -2 -73 -6
-90 -9 -16 -2 -66 -7 -109 -11 -43 -4 -88 -8 -100 -11 -11 -2 -35 -5 -53 -6
l-33 -2 3 -2856 c1 -1570 6 -2873 10 -2895 3 -22 9 -60 13 -85 12 -97 16 -119
35 -230 12 -63 22 -124 24 -135 5 -28 13 -66 31 -144 9 -36 18 -75 20 -86 2
-11 20 -76 39 -145 20 -69 38 -132 40 -140 20 -80 139 -399 175 -471 11 -21
17 -39 14 -39 -4 0 1 -9 11 -20 10 -11 15 -20 11 -20 -4 0 34 -80 85 -177 50
-98 97 -188 103 -200 6 -13 14 -23 19 -23 4 0 7 -5 7 -10 0 -13 81 -144 92
-148 4 -2 8 -8 8 -14 0 -11 61 -101 73 -106 4 -2 7 -8 7 -13 0 -18 188 -257
325 -414 97 -111 327 -331 445 -425 24 -19 50 -42 59 -50 59 -55 440 -322 511
-357 14 -7 39 -22 55 -32 163 -105 663 -339 871 -406 27 -9 56 -19 64 -22 8
-4 18 -7 23 -8 4 -2 9 -4 12 -5 3 -1 10 -4 15 -5 6 -1 11 -3 13 -5 1 -1 9 -3
17 -5 8 -1 44 -12 80 -24 36 -12 74 -23 85 -26 11 -2 51 -13 89 -24 56 -17
238 -59 323 -75 44 -9 129 -19 148 -18 18 1 200 36 250 48 11 3 30 7 43 10 62
13 182 43 190 48 5 3 20 7 33 9 86 16 421 127 594 198 17 7 35 13 40 15 6 1
33 13 60 25 28 13 52 24 55 24 27 4 397 191 504 254 190 112 456 291 464 312
2 5 8 9 14 9 5 0 15 6 22 13 7 6 28 23 46 37 18 14 39 31 46 38 7 6 15 12 18
12 3 0 16 10 29 22 13 13 56 52 97 88 129 114 305 294 415 425 32 39 62 72 67
73 4 2 8 10 8 17 0 7 4 15 8 17 9 3 162 205 162 213 0 3 15 26 34 52 30 44
137 216 178 289 58 104 180 357 218 455 12 30 28 68 35 84 17 38 66 171 69
188 2 6 6 19 9 27 5 14 30 89 32 100 1 3 4 12 8 20 8 21 56 194 61 222 3 12 5
23 6 23 1 0 3 7 5 15 1 8 7 33 13 55 16 62 69 331 82 415 17 111 18 121 26
175 3 27 9 61 12 75 9 39 13 5743 5 5751 -5 4 -51 10 -103 14 -52 4 -108 9
-125 10 -89 9 -176 17 -225 20 -69 5 -180 14 -243 20 -52 6 -129 11 -267 20
-47 3 -107 7 -135 10 -46 5 -151 11 -315 20 -36 2 -105 6 -155 9 -102 6 -252
15 -370 21 -44 3 -143 7 -220 10 -77 3 -183 7 -235 10 -127 5 -429 15 -675 21
-209 6 -1644 12 -1648 7z m163 -517 c104 -12 221 -36 275 -56 11 -4 38 -13 60
-20 50 -15 205 -89 206 -98 4 -21 3 -2372 -1 -2372 -3 0 -54 21 -195 80 -43
18 -191 60 -211 60 -11 0 -24 3 -28 7 -3 4 -17 8 -29 10 -12 1 -53 8 -92 14
-86 15 -251 18 -325 7 -30 -5 -68 -10 -85 -13 -71 -10 -108 -17 -240 -46 -77
-16 -149 -31 -160 -33 -18 -3 -38 -7 -105 -22 -14 -3 -34 -7 -45 -9 -11 -2
-40 -8 -65 -14 -25 -5 -61 -13 -80 -16 -19 -3 -60 -10 -90 -15 -100 -17 -118
-20 -156 -25 -106 -13 -159 -17 -271 -19 -106 -3 -123 -1 -127 13 -2 9 -4 555
-4 1214 1 1089 2 1197 17 1198 19 2 15 2 71 -5 222 -27 555 -27 709 0 19 3 84
23 145 45 146 52 236 75 401 104 17 3 64 8 105 11 41 3 76 7 77 8 5 4 191 -2
243 -8z m1620 1 c65 -11 95 -16 115 -21 21 -5 134 -43 170 -57 24 -9 74 -22
95 -24 9 -1 31 -7 50 -13 33 -10 103 -24 195 -37 22 -3 54 -8 70 -10 17 -3 55
-7 86 -9 31 -2 60 -5 65 -8 23 -11 505 1 599 15 9 2 11 -801 4 -2000 -2 -376
-4 -422 -18 -426 -31 -8 -266 4 -361 19 -19 3 -51 7 -70 9 -19 2 -37 4 -40 5
-3 1 -8 2 -12 1 -4 0 -31 4 -60 9 -29 5 -69 12 -88 15 -50 8 -150 25 -180 31
-14 3 -36 7 -50 9 -14 2 -83 15 -155 30 -71 14 -164 32 -205 40 -41 8 -88 17
-105 20 -114 22 -206 38 -245 41 -260 25 -600 -46 -792 -164 l-33 -21 0 1186
0 1185 35 15 c154 65 450 145 590 159 36 3 66 7 68 9 5 4 237 -3 272 -8z
m-4025 -611 c171 -101 164 -376 -13 -462 -57 -28 -174 -26 -232 5 -83 43 -128
116 -132 212 -4 132 56 226 172 266 53 19 154 8 205 -21z m5665 -94 c98 -27
214 -27 295 0 101 34 204 27 279 -17 39 -23 94 -75 79 -75 -3 0 1 -8 9 -17 17
-19 44 -100 37 -108 -3 -2 -23 2 -44 9 -76 26 -127 15 -300 -67 -236 -110
-318 -142 -393 -151 -64 -8 -62 -16 -62 231 0 180 3 224 13 220 7 -3 46 -14
87 -25z m-5150 -21 c3 0 5 -65 5 -143 l0 -143 -151 0 -150 0 1 145 c1 80 3
145 3 145 6 1 288 -3 292 -4z m-532 -909 c62 -32 115 -92 129 -145 11 -41 11
-162 1 -174 -6 -7 -8 -13 -4 -13 10 0 -45 -83 -68 -103 -43 -39 -81 -51 -160
-54 -67 -2 -86 2 -125 22 -81 43 -113 83 -136 171 -25 94 14 212 88 268 74 55
198 68 275 28z m5708 -37 c91 -10 228 -5 344 14 134 22 218 -7 277 -96 32 -48
68 -141 59 -151 -3 -2 -22 4 -43 14 -27 13 -59 18 -108 17 -67 0 -75 -3 -175
-61 -58 -34 -112 -62 -120 -62 -9 0 -20 -4 -25 -9 -24 -22 -194 -66 -290 -76
l-52 -5 0 229 1 230 36 -19 c20 -10 64 -22 96 -25z m-5171 -218 c0 -76 -2
-142 -5 -148 -4 -6 -63 -8 -151 -7 l-144 3 -1 140 c-1 77 0 143 2 146 2 3 69
5 151 5 l147 -1 1 -138z m2590 -976 c33 -10 103 -38 155 -61 108 -48 197 -60
257 -35 l35 15 -5 -36 c-3 -20 -17 -48 -32 -64 l-27 -29 48 3 c65 4 82 12 127
58 20 22 38 34 38 26 9 -89 -12 -135 -79 -171 -26 -14 -67 -28 -92 -32 -46 -7
-66 -15 -37 -15 10 0 17 -4 17 -10 0 -5 6 -10 14 -10 24 0 64 -57 71 -100 14
-83 57 -130 120 -130 28 0 30 -7 12 -31 -30 -40 -69 -44 -125 -15 -16 8 -32
13 -35 10 -5 -5 13 -42 41 -89 7 -12 8 -17 22 -108 12 -84 43 -157 75 -181 14
-10 33 -24 42 -31 17 -12 16 -14 -9 -20 -32 -8 -88 22 -127 68 -31 37 -36 29
-12 -24 27 -59 22 -151 -13 -257 -15 -45 -31 -82 -34 -82 -13 0 -28 15 -52 50
-30 43 -81 92 -88 85 -6 -6 13 -46 41 -87 10 -16 15 -28 11 -28 -3 0 -2 -6 3
-12 26 -33 51 -264 31 -284 -13 -12 -38 5 -56 37 -9 17 -30 47 -46 67 l-28 37
5 -40 c10 -81 46 -152 114 -221 70 -72 103 -119 140 -199 22 -49 27 -74 28
-140 0 -44 -3 -89 -6 -100 -4 -11 -9 -49 -13 -85 -10 -99 -16 -142 -22 -152
-9 -14 -51 40 -86 110 -17 34 -35 62 -40 62 -11 0 -10 -6 7 -70 19 -73 50
-132 98 -186 21 -24 36 -44 33 -44 -3 0 -1 -11 4 -26 23 -59 33 -204 16 -221
-8 -8 -56 44 -56 62 -1 17 -56 78 -67 74 -7 -2 3 -44 23 -106 43 -130 48 -163
48 -303 0 -95 -4 -126 -23 -175 -12 -33 -24 -68 -26 -77 -2 -10 -10 -27 -18
-39 -14 -20 -15 -19 -22 23 -4 24 -20 97 -37 163 -16 66 -31 125 -32 130 -1 6
-6 21 -10 34 -8 24 -8 24 -45 -16 -20 -22 -57 -71 -84 -109 -53 -78 -92 -124
-104 -124 -5 0 -10 17 -11 38 -8 120 -49 317 -99 477 -27 86 -68 175 -81 175
-6 0 -30 -51 -37 -80 -2 -8 -48 -123 -66 -165 -32 -76 -138 -368 -147 -405
-32 -134 -31 -126 -35 -265 -3 -123 7 -212 33 -280 12 -31 12 -35 3 -35 -12 0
-87 167 -98 214 -2 12 -11 48 -19 81 -28 118 -38 276 -24 375 14 93 37 148 83
197 40 43 43 49 39 90 -5 51 -32 110 -44 97 -4 -5 -11 -31 -14 -57 -8 -54 -33
-114 -52 -121 -21 -8 -72 42 -83 78 -17 65 2 170 41 218 40 51 78 131 78 166
0 16 -10 39 -22 51 l-21 24 -17 -43 c-18 -46 -54 -90 -75 -90 -20 0 -57 129
-57 201 0 73 8 136 22 173 5 15 6 26 3 26 -4 0 -2 5 5 12 7 7 12 18 12 26 0
13 39 95 79 165 12 21 44 66 72 99 39 47 47 63 39 74 -10 11 -16 9 -38 -11
-14 -14 -46 -35 -69 -47 -52 -28 -61 -20 -57 50 15 219 115 365 273 394 34 6
61 16 61 20 0 5 -4 7 -9 4 -10 -7 -77 52 -68 60 3 3 20 8 39 10 210 32 308
106 308 235 0 38 -9 36 -40 -6 -32 -44 -110 -96 -147 -97 -16 -1 -42 6 -58 15
l-30 15 25 7 c51 13 81 93 49 131 -7 9 -26 21 -43 28 -29 12 -43 12 -121 3
-51 -7 -116 36 -128 84 -4 14 0 16 22 9 40 -11 77 -2 151 36 92 48 139 51 215
14 37 -19 72 -46 90 -70 46 -61 63 -51 56 35 -4 41 -26 76 -65 102 -34 22
-116 53 -140 53 -8 0 -17 12 -20 26 -4 14 -29 48 -55 74 -48 48 -80 63 -166
75 -58 9 -65 12 -65 33 0 11 -18 38 -40 61 -30 30 -48 41 -70 41 -56 0 -109
-39 -126 -92 l-9 -28 -26 23 c-78 67 -77 171 3 262 46 52 100 87 121 79 9 -3
24 -27 33 -52 25 -66 43 -91 70 -98 40 -10 45 4 19 56 -33 65 -39 104 -19 124
22 23 48 20 82 -9 29 -25 62 -25 62 -1 1 16 40 60 72 81 71 45 160 51 263 16z
m-1540 -168 c108 -56 156 -182 151 -390 -2 -57 -6 -106 -9 -109 -3 -3 -1 -18
4 -33 13 -37 51 -56 164 -80 3 -1 10 -1 16 -1 13 0 -33 -65 -69 -97 -35 -32
-90 -34 -170 -7 -61 20 -81 18 -92 -10 -5 -13 -29 -39 -55 -57 -62 -44 -85
-84 -85 -146 0 -42 6 -57 34 -93 28 -36 33 -50 31 -86 -1 -24 -10 -50 -20 -60
-13 -13 -15 -28 -11 -62 10 -85 63 -105 192 -71 38 10 80 20 94 23 14 3 41 9
60 14 69 16 154 0 190 -38 12 -13 66 -36 80 -35 8 1 21 3 29 3 19 3 11 124 -9
143 -8 8 -37 27 -63 43 -27 15 -61 41 -77 58 -26 27 -29 35 -25 87 2 31 8 70
13 86 15 47 63 148 83 173 l18 23 12 -43 c17 -56 65 -136 104 -171 16 -15 77
-60 134 -99 140 -97 194 -173 217 -298 10 -58 7 -89 -17 -157 -10 -30 -16 -59
-14 -63 3 -5 1 -11 -3 -14 -19 -11 3 -142 29 -170 4 -5 -3 -26 -16 -47 -23
-36 -56 -123 -71 -185 -4 -16 -8 -83 -9 -149 -3 -132 14 -207 68 -291 25 -40
25 -43 12 -94 -31 -119 -4 -242 71 -320 31 -33 33 -38 23 -70 -5 -19 -12 -44
-15 -55 -7 -31 -7 -157 0 -190 3 -17 8 -39 10 -50 2 -11 7 -33 11 -49 15 -57
-19 -21 -52 55 -92 214 -108 241 -188 327 -103 111 -234 171 -407 188 l-58 5
0 -41 c0 -39 21 -92 46 -115 27 -25 84 -103 94 -129 16 -44 23 -94 22 -173 -1
-127 -17 -142 -71 -63 -18 28 -36 50 -40 50 -3 0 -25 17 -48 38 -55 50 -99
144 -106 225 -2 27 -13 21 -67 -34 -107 -109 -161 -246 -155 -398 1 -45 0 -79
-4 -76 -3 4 -6 10 -7 13 0 4 -6 21 -13 37 -7 17 -17 41 -21 55 -5 14 -22 59
-38 101 l-29 76 56 70 c31 38 70 87 86 108 17 21 41 52 56 69 47 58 96 131
134 201 21 39 49 87 62 108 13 20 21 37 18 37 -3 0 6 18 20 40 14 22 23 40 21
40 -3 0 2 16 10 35 8 19 11 35 7 35 -10 -1 -53 -36 -53 -43 0 -3 -14 -21 -31
-39 -36 -39 -229 -296 -370 -493 -28 -38 -52 -72 -54 -74 -4 -3 -54 99 -53
109 0 3 -14 29 -31 58 -36 62 -36 62 -13 88 64 70 162 217 211 319 102 207
140 317 85 244 -33 -43 -194 -288 -194 -295 0 -3 -5 -10 -11 -17 -6 -7 -38
-55 -72 -107 -91 -141 -85 -137 -135 -90 -51 48 -82 53 -82 13 -1 -16 -7 -55
-15 -88 -8 -33 -15 -76 -15 -96 0 -40 -13 -59 -115 -163 -75 -77 -184 -171
-190 -164 -16 16 -26 228 -11 243 6 7 38 43 71 80 33 37 70 80 83 94 72 81
137 170 204 276 99 158 162 274 153 283 -7 7 -83 -71 -140 -144 -16 -20 -42
-51 -57 -68 -14 -17 -56 -69 -92 -116 -37 -47 -72 -92 -79 -100 -7 -8 -46 -58
-86 -110 -68 -88 -86 -105 -86 -80 0 5 -6 15 -12 22 -7 6 -13 16 -13 20 0 4
-8 17 -17 27 -51 55 -63 70 -63 77 0 5 18 34 39 64 111 154 195 285 235 367
56 114 97 210 102 243 4 23 1 21 -35 -17 -21 -23 -40 -45 -42 -50 -5 -9 -245
-373 -257 -388 -4 -5 -29 -45 -56 -88 -26 -42 -51 -79 -55 -82 -4 -2 -18 -1
-31 2 -22 6 -22 9 -16 72 3 36 8 76 10 87 2 12 7 39 10 60 4 22 15 90 26 153
21 119 16 152 -15 105 -21 -32 -65 -160 -65 -189 0 -12 -3 -25 -7 -29 -7 -7
-9 -16 -18 -84 -2 -24 -7 -47 -9 -51 -3 -4 -7 -31 -10 -59 -3 -29 -7 -56 -10
-61 -3 -4 -33 -14 -66 -21 -33 -7 -67 -18 -76 -24 -22 -17 -8 -62 26 -82 27
-17 62 -65 67 -94 9 -49 3 -146 -13 -221 -10 -48 -6 -167 7 -190 7 -13 12 -25
11 -26 -4 -8 16 -43 45 -79 41 -51 37 -76 -13 -70 -35 3 -114 -28 -114 -45 0
-5 -4 -9 -8 -9 -8 0 -23 57 -37 135 -2 17 -7 39 -9 50 -2 11 -7 40 -10 65 -3
25 -8 56 -11 70 -23 115 -23 697 0 830 2 14 7 48 10 75 4 28 9 64 12 80 5 30
7 51 17 150 8 78 -8 88 -37 24 -53 -117 -69 -153 -87 -198 -10 -25 -26 -64
-36 -86 -10 -22 -18 -42 -19 -45 -1 -6 -60 -148 -83 -200 -8 -19 -16 -37 -16
-40 -2 -7 -45 -116 -66 -165 -9 -22 -34 -83 -55 -135 -21 -52 -42 -99 -46
-104 -5 -6 -9 -16 -9 -23 0 -8 -9 -33 -20 -55 -11 -23 -20 -45 -20 -49 0 -4
-13 -36 -29 -71 -15 -35 -34 -77 -42 -94 l-13 -31 -23 21 c-46 43 -51 196 -11
366 6 25 12 54 13 65 2 11 4 20 5 20 1 0 3 8 5 18 2 9 16 56 31 105 15 48 29
92 30 98 12 64 237 564 263 584 3 3 13 17 21 32 47 83 83 138 91 138 5 0 9 5
9 11 0 6 11 24 25 41 14 16 25 36 25 44 0 36 -44 3 -175 -128 -77 -79 -168
-165 -200 -193 -33 -27 -62 -52 -65 -55 -22 -24 -135 -87 -186 -105 -61 -21
-155 -28 -171 -12 -7 8 138 153 328 327 193 178 479 466 479 484 0 22 18 30
-153 -62 -61 -33 -198 -88 -238 -96 -13 -3 -46 -9 -73 -14 -95 -19 -335 4
-309 29 4 4 44 27 88 50 279 145 529 297 630 384 17 14 43 37 59 50 73 64 150
190 123 201 -8 3 -55 -16 -105 -41 -51 -25 -95 -45 -98 -45 -3 0 -20 -7 -37
-14 -41 -19 -145 -53 -180 -60 -15 -3 -35 -7 -45 -10 -83 -24 -215 -22 -313 4
-43 12 -43 20 0 44 60 32 743 454 766 473 25 20 207 133 215 133 4 0 10 3 12
8 2 4 57 41 123 82 113 70 124 75 182 77 51 1 123 23 123 37 0 2 -39 4 -86 4
-97 1 -144 17 -162 57 -14 29 -7 87 15 129 l15 29 16 -33 c23 -48 81 -71 168
-66 38 3 81 9 97 15 15 6 27 9 27 7 0 -3 66 18 147 45 210 71 289 78 378 32z
m3385 1 c14 -3 36 -8 50 -10 52 -10 169 -48 265 -87 82 -33 114 -40 178 -42
76 -3 81 -5 72 -35 -6 -19 -62 -53 -74 -46 -14 9 -72 -15 -68 -27 2 -6 41 -21
88 -32 130 -33 288 -109 365 -177 42 -37 43 -46 4 -50 -29 -3 -20 -14 207
-243 131 -132 284 -284 341 -337 56 -53 102 -99 102 -102 0 -14 -41 -3 -105
28 -57 27 -248 159 -291 200 -6 6 -33 29 -59 51 -27 22 -76 65 -109 97 -33 31
-64 54 -68 52 -18 -11 46 -92 193 -245 117 -120 234 -245 277 -295 23 -27 56
-65 73 -84 17 -19 49 -60 72 -90 23 -30 44 -57 47 -60 12 -11 99 -139 133
-196 43 -71 47 -90 17 -74 -11 6 -20 8 -20 6 0 -10 -143 45 -223 85 -98 49
-156 88 -207 142 -42 44 -160 204 -182 247 -7 14 -28 47 -46 73 -18 26 -37 59
-42 73 -5 13 -14 24 -20 24 -5 0 -10 5 -10 10 0 11 -60 96 -96 136 -27 29 -61
47 -69 34 -6 -10 59 -129 78 -141 5 -3 8 -9 8 -13 -1 -3 5 -16 13 -29 58 -90
266 -442 266 -448 0 -5 4 -9 9 -9 5 0 12 -11 15 -25 4 -14 11 -25 16 -25 6 0
10 -4 10 -9 0 -5 20 -44 45 -85 25 -42 45 -81 45 -85 0 -5 3 -11 8 -13 22 -9
138 -311 126 -329 -3 -5 -1 -9 3 -9 8 0 27 -84 40 -185 8 -60 8 -504 -1 -595
-16 -181 -55 -307 -91 -294 -7 3 -19 26 -26 52 -6 26 -13 52 -15 57 -9 31 -65
243 -69 261 -3 11 -22 92 -44 180 -21 87 -43 175 -47 194 -11 48 -11 50 -14
53 -1 1 -3 11 -5 22 -1 11 -8 40 -14 65 -7 25 -20 79 -30 120 -10 41 -24 87
-30 103 -6 15 -9 27 -6 27 2 0 -2 18 -10 40 -8 22 -14 43 -14 45 1 7 -69 231
-81 260 -51 124 -112 253 -147 310 -53 85 -80 121 -87 115 -2 -3 27 -88 66
-190 58 -154 121 -337 168 -485 16 -52 49 -179 55 -215 3 -18 8 -36 10 -40 8
-12 44 -246 50 -320 4 -41 8 -87 9 -102 2 -15 -2 -32 -8 -37 -6 -5 -59 -28
-118 -51 -59 -24 -113 -49 -119 -56 -6 -8 -17 -14 -23 -14 -7 0 -31 -16 -54
-36 -23 -19 -42 -33 -42 -30 0 80 -10 357 -14 372 -2 12 -7 45 -11 74 -4 29
-9 62 -11 74 -2 12 -7 39 -10 61 -18 143 -132 525 -155 525 -11 0 -18 -27 -14
-52 2 -13 7 -52 10 -88 13 -125 19 -177 30 -233 3 -15 7 -44 10 -65 2 -20 6
-51 9 -67 6 -39 15 -116 22 -180 l5 -50 -27 30 c-31 36 -42 49 -118 145 -33
41 -63 77 -66 80 -5 5 -73 87 -110 134 -57 71 -160 163 -160 143 0 -7 41 -93
56 -117 9 -14 21 -37 27 -52 6 -16 15 -28 19 -28 4 0 8 -5 8 -10 0 -6 16 -36
35 -66 19 -30 35 -56 35 -59 0 -6 8 -16 86 -110 32 -38 65 -77 74 -85 10 -8
47 -42 84 -74 l66 -59 -5 -118 c-3 -64 -10 -130 -16 -146 -6 -15 -10 -29 -10
-30 1 -2 1 -10 1 -18 0 -49 -66 18 -330 335 -25 30 -60 71 -77 91 -18 20 -33
42 -33 48 0 6 -4 11 -8 11 -4 0 -36 34 -72 76 -78 93 -157 174 -170 174 -14 0
-12 -13 10 -64 11 -26 20 -50 20 -54 1 -4 7 -14 14 -22 7 -8 20 -28 28 -45 8
-16 24 -47 36 -67 12 -21 31 -55 43 -75 41 -74 126 -165 437 -467 l71 -69 -21
-40 c-11 -22 -27 -47 -34 -55 -8 -7 -14 -16 -14 -20 0 -4 -16 -25 -36 -46
l-35 -39 -32 23 c-18 13 -36 28 -42 32 -175 138 -175 138 -176 171 -1 55 -23
111 -48 123 -18 10 -33 9 -66 0 l-42 -13 -49 56 c-146 166 -294 300 -294 265
0 -14 83 -170 101 -190 10 -11 19 -25 19 -31 0 -6 33 -44 73 -85 l72 -73 -45
-90 c-25 -49 -50 -103 -55 -118 l-10 -28 -36 33 c-20 18 -80 74 -133 125 -142
136 -167 143 -114 33 35 -72 111 -153 209 -222 32 -22 59 -42 59 -43 0 -1 -9
-29 -19 -63 -36 -112 -60 -147 -161 -237 -99 -88 -292 -246 -296 -242 -6 6 40
116 69 162 85 136 152 201 271 259 63 31 65 47 9 102 -30 31 -48 37 -103 36
-21 0 -139 -14 -157 -18 -17 -5 -22 -2 -21 13 1 23 -11 112 -19 138 -6 20 -10
44 -18 100 -2 17 -4 30 -5 30 -4 0 -10 55 -16 130 -3 44 -9 84 -14 89 -17 18
-158 -89 -195 -149 -7 -11 -16 -51 -20 -90 -12 -117 -31 -179 -79 -248 -40
-59 -88 -162 -79 -171 4 -3 -1 -6 -9 -6 -14 0 -24 17 -34 60 -1 8 -4 60 -5
115 -1 91 -12 152 -28 165 -15 12 -80 118 -99 161 -25 58 -34 97 -49 217 -4
35 -1 48 16 66 59 63 70 198 25 334 -13 40 -12 209 2 297 41 261 17 370 -113
507 l-54 56 15 54 c8 29 18 76 21 104 l7 52 50 -18 c89 -31 122 -6 173 128 22
59 35 79 68 103 61 44 87 85 87 139 0 25 -7 56 -16 68 -8 12 -12 22 -8 22 4 0
-1 9 -11 20 -27 30 -1 26 71 -10 106 -53 124 -124 64 -255 -46 -100 -41 -117
33 -117 95 -1 185 30 233 81 29 30 61 88 68 122 17 92 44 144 105 203 71 69
65 132 -16 168 l-45 20 4 54 c3 30 4 54 2 54 -1 0 -31 -30 -65 -66 -35 -36
-75 -72 -89 -79 -27 -13 -102 -14 -135 0 -86 35 -105 36 -173 14 -42 -14 -47
-14 -48 4 -2 34 32 66 90 88 67 24 150 74 180 108 22 24 26 85 7 104 -6 6 -11
30 -11 53 0 34 9 54 46 105 47 65 98 118 139 145 31 20 109 28 136 14 18 -10
32 -6 94 25 109 56 217 72 315 49z m-2742 -281 c-5 -26 19 -87 45 -113 36 -35
86 -47 182 -44 227 9 289 7 339 -15 49 -21 86 -53 106 -91 9 -17 8 -19 -7 -13
-10 3 -23 10 -29 15 -7 5 -35 11 -63 13 -29 3 -57 7 -62 10 -5 4 -9 3 -9 -2 0
-4 -17 -8 -38 -9 -20 0 -57 -4 -82 -8 -25 -4 -54 -9 -65 -11 -11 -2 -20 -4
-20 -5 0 -15 -212 -24 -260 -10 -86 24 -144 110 -124 183 11 41 96 137 87 100z
m812 -2389 c0 -12 4 -25 9 -28 4 -3 12 -20 16 -38 9 -38 9 -40 23 -93 23 -86
33 -253 18 -315 -4 -14 -10 -38 -14 -55 -8 -33 -7 -228 1 -260 3 -11 6 -33 6
-49 1 -35 10 -30 17 10 28 159 98 306 191 398 36 36 69 66 74 66 4 0 13 -17
18 -37 5 -21 20 -74 31 -118 39 -144 52 -258 36 -325 -3 -14 -9 -38 -12 -55
-9 -42 -44 -108 -124 -236 -46 -74 -72 -128 -79 -162 -14 -67 -22 -242 -11
-231 5 5 22 52 39 105 35 108 89 216 135 270 35 42 91 141 112 202 14 38 17
54 29 130 26 163 47 226 102 310 45 68 54 74 60 38 3 -20 14 -48 43 -101 21
-42 24 -147 5 -219 -18 -69 -62 -164 -122 -264 -29 -48 -53 -92 -53 -97 0 -27
80 5 127 50 30 30 62 88 84 152 15 44 24 41 41 -15 25 -88 12 -168 -29 -181
-10 -3 -42 -28 -71 -56 -70 -66 -104 -139 -103 -221 0 -34 2 -64 5 -66 3 -3
17 9 32 27 15 18 33 37 39 44 6 6 41 50 78 98 102 134 139 227 138 345 0 71 6
89 63 183 70 115 106 212 121 318 10 73 19 96 55 138 43 51 57 50 57 -4 0 -26
3 -63 7 -82 41 -215 37 -296 -19 -397 -13 -24 -21 -43 -17 -43 4 0 38 21 76
45 90 58 152 74 249 64 25 -3 6 -18 -26 -21 -15 -1 -27 -6 -27 -10 0 -4 -7 -8
-15 -8 -24 0 -87 -43 -127 -88 -41 -46 -79 -116 -128 -237 -71 -178 -123 -254
-218 -323 -48 -34 -71 -61 -95 -111 l-17 -34 43 7 c53 8 170 64 222 105 76 61
189 177 225 231 3 4 59 45 126 93 66 47 144 111 173 143 64 70 141 224 175
352 24 89 70 175 116 217 34 31 44 4 43 -120 0 -87 -7 -140 -28 -225 -8 -30
-16 -66 -19 -80 -20 -101 -59 -168 -175 -300 -41 -46 -39 -53 7 -30 20 10 84
42 142 70 204 102 338 195 458 320 45 46 182 239 182 255 0 10 99 141 121 159
84 70 332 206 343 187 3 -4 -15 -38 -40 -76 -24 -38 -45 -74 -45 -80 -1 -5 -3
-23 -5 -40 -3 -36 -16 -116 -20 -130 -2 -5 -5 -22 -8 -36 -7 -30 -64 -147 -97
-196 -30 -47 -5 -52 68 -14 61 32 88 37 113 21 13 -9 13 -11 0 -20 -8 -5 -19
-10 -25 -10 -12 0 -89 -75 -130 -127 -33 -41 -97 -107 -136 -139 -36 -30 -147
-94 -163 -94 -6 0 -17 -5 -24 -12 -7 -7 -12 -9 -12 -6 0 4 -15 1 -32 -6 -43
-18 -187 -47 -303 -61 -27 -4 -57 -8 -65 -10 -8 -2 -35 -7 -60 -10 -125 -17
-211 -38 -310 -77 -80 -30 -182 -78 -190 -88 -3 -4 -21 -15 -40 -26 -19 -10
-39 -23 -45 -27 -46 -37 -237 -167 -244 -167 -5 0 -11 -4 -13 -8 -10 -24 -186
-112 -275 -138 -74 -21 -135 -54 -131 -72 2 -7 6 -13 11 -12 10 1 90 -43 99
-55 4 -5 8 -6 8 -1 0 5 6 3 13 -3 51 -42 217 -60 314 -35 32 8 132 54 223 101
244 128 354 182 358 178 2 -2 -29 -39 -69 -81 -186 -196 -268 -274 -319 -302
-52 -29 -146 -68 -187 -77 -10 -2 -43 -11 -73 -19 -30 -9 -73 -18 -95 -22 -22
-3 -42 -7 -45 -9 -33 -20 -349 -24 -457 -6 -114 20 -196 -3 -272 -75 l-36 -34
66 4 c37 2 83 -2 103 -9 20 -7 36 -11 36 -8 0 4 18 -10 53 -42 37 -34 164
-115 180 -115 9 0 18 -4 21 -8 3 -5 21 -8 41 -7 19 0 35 -3 35 -7 0 -18 106
34 137 67 18 19 36 35 40 35 3 0 14 6 22 14 40 35 163 57 229 41 12 -3 31 -7
41 -9 30 -7 113 -56 140 -82 l24 -24 -27 0 c-15 0 -39 -8 -54 -17 -28 -17
-102 -88 -102 -98 0 -16 -119 -142 -160 -169 -31 -21 -89 -44 -130 -53 -24 -6
-163 -5 -186 0 -35 8 -102 45 -222 121 -154 97 -187 115 -236 130 -54 16 -93
3 -117 -40 -35 -63 -8 -131 109 -267 97 -113 123 -203 82 -280 -60 -111 -170
-147 -285 -92 -75 35 -264 227 -199 201 41 -16 141 -33 177 -29 96 9 115 57
65 170 -10 23 -23 45 -28 48 -14 9 -79 145 -86 181 -4 16 -8 40 -9 54 -2 14
-3 29 -4 33 -2 14 -26 -5 -120 -91 -50 -46 -107 -97 -128 -114 -21 -16 -40
-33 -43 -36 -9 -13 -69 -52 -79 -52 -5 0 -11 -4 -13 -9 -5 -15 -121 -68 -177
-81 -69 -16 -147 -8 -198 22 -23 12 -104 84 -180 158 -163 158 -230 220 -238
220 -3 0 -16 9 -27 20 -33 31 -188 132 -206 134 -9 2 -18 8 -20 15 -3 8 37 10
160 7 179 -5 203 -8 298 -37 120 -38 189 -90 270 -204 69 -97 162 -133 246
-96 38 17 101 73 154 136 137 163 152 187 130 209 -6 6 -14 11 -18 12 -4 0
-20 6 -37 13 -16 7 -34 14 -40 15 -5 1 -15 5 -21 8 -6 4 -22 9 -37 12 -15 2
-31 7 -35 10 -5 3 -27 8 -48 11 -21 2 -50 7 -64 10 -82 18 -269 2 -361 -30
-54 -19 -54 -20 -29 12 103 132 212 212 325 238 137 32 310 -53 410 -201 26
-39 35 -34 31 17 -7 77 -85 188 -170 245 -61 40 -152 74 -216 80 -162 15 -250
-6 -465 -110 -268 -131 -296 -134 -465 -53 -36 17 -69 35 -75 40 -5 4 -35 25
-66 45 -89 58 -127 90 -224 187 -86 87 -135 145 -144 169 -2 6 -13 24 -24 39
-10 16 -17 31 -14 33 3 3 32 -12 65 -35 33 -22 96 -59 141 -81 80 -41 221 -94
221 -84 0 3 5 2 12 -2 20 -13 58 -17 163 -18 l100 -1 110 52 c149 70 202 82
338 78 115 -3 253 -31 362 -75 28 -11 64 -25 80 -31 17 -7 32 -13 35 -14 3 -1
14 -5 25 -9 11 -4 33 -13 48 -18 45 -17 41 -3 -14 43 -28 24 -62 53 -76 65
-69 59 -243 142 -334 159 -50 10 -132 18 -189 18 -68 1 -218 -11 -229 -18 -4
-2 -27 -6 -51 -10 -25 -3 -76 -18 -115 -31 -113 -40 -121 -42 -177 -39 -54 3
-98 19 -153 55 -16 11 -43 27 -60 36 -16 9 -32 20 -35 23 -9 11 -88 44 -117
50 -4 0 9 12 28 26 19 13 39 28 44 32 21 17 122 62 163 73 54 14 137 18 177 9
17 -4 48 -11 70 -14 22 -4 47 -8 55 -10 8 -1 19 0 23 2 10 6 -92 82 -110 83
-7 0 -13 4 -13 8 0 10 -86 31 -150 37 -25 2 -45 4 -45 5 0 1 -20 4 -45 6 -48
5 -317 50 -360 60 -14 3 -37 7 -51 8 -15 2 -31 6 -35 9 -5 3 -27 8 -48 11 -51
8 -206 49 -316 83 -47 15 -88 28 -92 29 -5 1 -9 2 -10 4 -2 1 -10 3 -18 5 -33
9 -116 41 -135 52 -19 12 -19 13 9 38 16 14 47 30 69 36 50 13 167 9 226 -8
24 -7 47 -11 49 -8 3 3 1 5 -4 5 -16 0 -54 31 -132 109 -97 95 -144 191 -143
288 0 35 2 67 5 72 6 9 19 113 20 166 2 45 -21 123 -41 143 -21 22 -15 28 27
25 57 -3 123 -35 153 -74 25 -33 55 -108 55 -139 0 -8 3 -24 5 -36 3 -11 8
-61 12 -110 13 -187 35 -267 91 -333 34 -39 86 -78 70 -52 -21 34 -28 128 -11
167 15 37 45 74 60 74 5 -1 20 -22 32 -48 28 -59 66 -105 128 -158 34 -28 124
-73 164 -80 21 -4 30 1 50 30 21 32 22 38 9 58 -55 87 -101 277 -101 423 0 57
13 218 18 223 14 14 127 -175 139 -234 3 -10 9 -39 15 -64 7 -25 14 -53 16
-64 13 -56 39 -135 58 -175 23 -51 193 -296 225 -324 20 -18 20 -18 26 1 15
48 8 134 -21 267 -12 52 -8 154 7 202 14 42 56 108 88 136 19 17 20 17 37 -20
30 -66 68 -114 114 -146 72 -49 75 -54 89 -157 6 -49 6 -60 -1 -169 -6 -82 6
-122 58 -180 33 -37 240 -180 322 -223 29 -15 78 -41 110 -59 32 -17 72 -39
88 -48 17 -9 32 -18 35 -21 3 -3 16 -11 30 -18 39 -20 155 -109 198 -151 34
-34 60 -65 97 -116 13 -18 14 -16 11 27 -6 80 -70 164 -187 243 -24 17 -48 34
-54 38 -5 4 -62 42 -125 83 -214 141 -318 241 -383 370 -47 94 -55 147 -53
360 4 297 -4 329 -102 428 l-57 59 49 -8 c27 -3 56 -10 65 -15 9 -5 31 -15 49
-22 17 -7 32 -16 32 -20 0 -5 4 -8 10 -8 30 0 230 -216 230 -249 0 -5 7 -14
15 -21 8 -7 15 -21 15 -31 0 -11 4 -19 8 -19 21 0 152 -326 166 -411 12 -75
83 -178 220 -315 12 -12 28 -31 36 -44 8 -12 20 -28 26 -34 5 -6 19 -26 29
-43 11 -18 22 -33 26 -33 3 0 -7 46 -23 103 -16 56 -31 118 -34 137 -7 39 -8
45 -18 80 -3 14 -9 45 -11 70 -3 25 -8 59 -10 75 -7 41 -7 300 -1 350 13 101
17 131 23 150 7 21 8 23 16 65 3 14 12 44 21 68 8 23 15 43 15 45 -1 8 20 55
63 145 41 84 53 101 64 91 8 -6 14 -22 14 -35z m-1925 -473 c2 -66 11 -124 25
-169 34 -107 26 -117 -41 -51 -69 69 -121 143 -125 180 -3 23 8 37 63 88 36
34 68 60 70 57 2 -2 6 -49 8 -105z m4089 -125 c21 -16 50 -41 66 -55 15 -14
37 -33 49 -41 12 -8 21 -18 21 -22 0 -10 -61 -70 -106 -104 l-32 -25 -39 24
c-21 13 -46 27 -57 30 -22 9 -19 52 13 199 12 54 13 56 30 40 9 -9 34 -30 55
-46z m-104 -254 c0 -5 12 -14 26 -21 23 -10 24 -14 13 -28 -18 -21 -99 -73
-115 -73 -9 0 -8 11 5 38 10 20 24 49 30 65 10 24 41 39 41 19z m-4624 -196
c11 -2 36 -11 56 -19 30 -13 39 -23 49 -59 19 -63 20 -73 22 -178 1 -71 -3
-108 -16 -142 -32 -83 -54 -71 -115 62 -56 122 -57 125 -102 280 -37 131 -39
124 28 89 32 -16 67 -31 78 -33z m5389 46 c-1 -9 -8 -37 -15 -62 -7 -25 -14
-53 -16 -63 -6 -36 -98 -253 -116 -276 -10 -13 -18 -28 -18 -33 0 -12 -62
-109 -84 -131 -44 -43 -74 6 -74 119 0 68 19 200 33 236 4 10 31 32 61 49 61
35 157 109 194 151 29 32 40 36 35 10z"/>
<path d="M3944 9180 c-138 -69 -191 -265 -99 -363 45 -47 100 -75 162 -81 45
-4 57 0 117 36 36 22 66 44 66 49 0 10 -34 10 -70 0 -44 -13 -101 7 -142 49
-21 21 -38 43 -38 48 0 12 160 172 172 172 18 0 6 34 -24 65 -43 45 -88 53
-144 25z m60 -79 l38 -39 -55 -56 -54 -56 -11 26 c-15 31 -15 79 -1 105 8 16
41 59 44 59 1 0 18 -17 39 -39z"/>
<path d="M4371 9134 c-52 -27 -114 -79 -130 -111 -18 -36 -6 -82 33 -122 l36
-37 -61 -58 c-59 -57 -60 -58 -39 -73 12 -8 47 -24 78 -35 89 -31 172 -15 267
53 90 65 89 133 -2 198 l-33 22 50 49 c28 27 50 52 50 55 0 11 -42 44 -80 64
-48 25 -112 23 -169 -5z m49 -64 c14 -11 29 -20 33 -20 5 0 16 -7 24 -16 15
-14 14 -17 -5 -36 -39 -39 -111 -20 -142 37 -13 25 -13 28 5 41 26 19 55 17
85 -6z m44 -206 c63 -30 73 -52 39 -88 -40 -44 -98 -36 -172 22 l-23 19 48 36
c27 20 50 37 51 37 1 0 27 -12 57 -26z"/>
<path d="M3439 9091 c-41 -40 -44 -61 -9 -61 11 0 27 -9 38 -20 16 -17 18 -37
17 -161 -1 -154 -2 -153 59 -153 l31 0 1 163 c1 137 4 165 18 179 15 16 19 14
47 -16 36 -39 52 -39 103 -4 44 30 61 58 30 48 -14 -4 -27 4 -47 29 -15 19
-32 35 -37 35 -5 0 -26 -11 -46 -25 -36 -24 -74 -33 -74 -17 0 7 -68 42 -83
42 -3 0 -25 -18 -48 -39z"/>
<path d="M3291 9096 c-6 -14 -12 -26 -13 -26 -2 0 -34 6 -71 14 -104 22 -160
14 -213 -29 -92 -76 -119 -134 -110 -237 8 -99 38 -137 155 -198 27 -14 105
-9 190 11 l54 13 23 -29 c13 -17 24 -27 25 -22 1 4 2 13 3 20 1 6 -4 20 -12
29 -10 12 -15 47 -16 119 0 55 1 102 4 104 8 5 5 243 -3 251 -3 4 -11 -5 -16
-20z m-87 -66 c40 -22 64 -57 71 -105 3 -22 8 -48 11 -57 3 -10 1 -18 -4 -18
-5 0 -9 -18 -10 -41 -6 -155 -203 -204 -274 -69 -24 47 -32 128 -18 180 14 53
64 107 114 124 42 14 65 12 110 -14z"/>
<path d="M4690 8927 c0 -9 9 -21 20 -27 25 -14 80 -9 80 7 0 16 -10 21 -58 29
-35 5 -42 4 -42 -9z"/>
<path d="M4701 8861 c-16 -10 2 -29 32 -35 14 -2 31 -7 36 -10 5 -3 14 1 21 8
9 12 7 17 -11 26 -26 14 -64 19 -78 11z"/>
<path d="M4178 8632 c-3 -14 -17 -17 -78 -19 -93 -2 -137 -20 -185 -75 -32
-38 -36 -48 -32 -82 5 -36 42 -86 64 -86 10 0 143 -54 172 -70 27 -14 49 -59
45 -90 -2 -14 -15 -35 -29 -47 -21 -18 -35 -21 -88 -19 -95 5 -146 40 -159
111 -3 20 -16 35 -30 35 -9 0 -3 -143 7 -182 4 -16 12 -28 17 -28 12 0 44 32
40 39 -6 9 32 19 63 15 146 -15 146 -15 180 6 74 46 99 169 50 243 -13 20 -61
49 -85 52 -93 12 -165 37 -174 62 -3 7 7 27 22 44 48 54 152 44 209 -20 12
-14 24 -23 27 -20 7 7 7 57 0 101 -6 39 -30 59 -36 30z"/>
<path d="M3693 8601 c-30 -52 -110 -139 -135 -147 -20 -6 -19 -8 13 -23 l34
-16 1 -110 c1 -61 3 -112 4 -115 1 -3 3 -13 5 -23 5 -28 32 -65 61 -84 31 -20
43 -14 93 46 l36 44 -30 -7 c-51 -10 -68 17 -81 129 -2 17 -6 47 -8 67 l-5 37
57 7 c31 3 61 4 65 3 11 -5 30 29 23 40 -4 5 -30 7 -60 4 -46 -4 -56 -2 -64
14 -13 24 -6 97 14 134 21 42 1 43 -23 0z"/>
<path d="M4654 8597 c-28 -31 -31 -84 -5 -108 25 -23 40 -24 69 -3 19 13 22
22 17 52 -5 32 -39 83 -54 81 -3 0 -15 -10 -27 -22z"/>
<path d="M2981 8493 c-87 -56 -129 -110 -155 -197 -25 -85 -2 -164 64 -216 46
-37 75 -47 120 -45 57 4 60 4 60 18 0 6 9 23 20 37 28 36 25 40 -25 40 -102 0
-176 71 -177 168 0 58 3 72 25 105 24 37 55 34 104 -7 l40 -35 36 37 36 37
-33 46 c-19 25 -40 46 -48 46 -8 0 -38 -16 -67 -34z"/>
<path d="M3355 8491 c-58 -18 -105 -58 -133 -111 -17 -31 -7 -106 14 -114 13
-5 10 -13 -14 -44 -56 -70 -54 -119 5 -177 l37 -35 30 28 c17 16 46 34 64 40
28 10 32 9 32 -6 0 -9 8 -29 18 -44 l18 -27 64 59 c58 53 66 66 36 61 -4 -1
-16 1 -27 4 -16 6 -18 17 -15 135 2 123 1 131 -21 157 -77 92 -70 87 -108 74z
m-3 -92 c12 -16 21 -48 24 -82 4 -51 3 -56 -18 -63 -55 -19 -79 -10 -104 37
-19 38 -11 79 23 114 31 31 49 29 75 -6z m31 -212 c-1 -20 -2 -41 -2 -47 -1
-5 -10 -14 -21 -20 -28 -15 -100 33 -100 66 0 25 5 27 56 24 18 -1 35 4 39 10
13 21 28 4 28 -33z"/>
<path d="M4423 8443 c-107 -80 -135 -121 -135 -199 0 -41 19 -91 44 -118 10
-11 18 -23 18 -27 0 -7 4 -8 77 -33 l41 -13 41 64 c23 35 41 68 41 74 0 16
-15 10 -28 -11 -9 -16 -19 -19 -40 -14 -61 15 -109 73 -118 141 -8 69 13 87
100 84 55 -1 67 1 75 18 15 28 14 38 -6 45 -10 3 -28 10 -40 15 -19 8 -31 4
-70 -26z"/>
<path d="M4633 8376 c-59 -58 -64 -69 -30 -61 12 3 31 -2 41 -10 18 -13 20
-29 21 -131 1 -113 2 -116 29 -141 l29 -26 34 18 c19 11 44 30 55 44 l19 26
-27 7 c-15 4 -32 15 -37 25 -6 9 -10 67 -10 127 1 93 -2 116 -19 144 -11 17
-27 32 -36 32 -9 0 -41 -25 -69 -54z"/>
<path d="M4122 7995 c-11 -12 -28 -28 -39 -34 -17 -10 -15 -13 17 -41 19 -17
38 -30 42 -30 6 0 78 69 78 75 0 1 -17 14 -39 28 l-39 26 -20 -24z"/>
<path d="M3847 7880 c-32 -50 -63 -90 -68 -90 -16 0 -10 -31 11 -48 16 -14 19
-32 22 -117 2 -105 14 -144 51 -170 34 -24 65 -19 81 13 8 15 28 42 45 59 17
18 31 35 31 38 0 9 -18 5 -32 -7 -20 -19 -31 -19 -57 2 -21 15 -25 28 -28 90
-5 82 0 90 57 90 29 0 36 4 36 20 0 11 -3 20 -6 21 -3 0 -19 2 -35 3 -48 4
-57 13 -50 54 11 58 14 132 7 132 -4 0 -33 -41 -65 -90z"/>
<path d="M4514 7874 c-50 -33 -94 -80 -95 -102 -2 -31 3 -75 10 -96 6 -14 2
-26 -10 -40 -10 -11 -26 -39 -35 -62 -21 -55 -12 -104 26 -147 l28 -32 24 20
c33 30 102 65 126 65 12 0 25 -6 29 -13 4 -7 23 -23 41 -36 l33 -23 27 23 c81
74 87 84 44 74 -50 -11 -57 15 -61 226 -1 53 -4 58 -54 112 -31 34 -61 57 -73
57 -12 0 -39 -12 -60 -26z m66 -127 c1 -1 3 -28 6 -59 l6 -56 -33 8 c-53 12
-86 30 -97 54 -14 31 -7 88 13 102 15 11 24 9 61 -17 24 -16 44 -31 44 -32z
m-66 -126 c3 -5 22 -7 41 -5 35 3 35 3 35 -37 0 -21 0 -42 0 -46 0 -5 -4 -8
-9 -8 -5 0 -13 -3 -17 -7 -4 -5 -22 -8 -40 -8 -34 0 -74 37 -74 67 0 39 47 72
64 44z"/>
<path d="M3065 7854 c-91 -54 -142 -129 -151 -221 -10 -98 43 -183 153 -249
l42 -24 42 62 c24 35 49 70 57 78 20 20 2 23 -38 6 -29 -12 -40 -12 -72 0 -88
31 -88 34 4 110 46 38 96 81 112 95 l28 26 -34 49 c-19 27 -40 61 -48 77 -7
15 -18 27 -24 27 -6 0 -38 -16 -71 -36z m70 -142 c19 -10 11 -18 -72 -76 -61
-42 -68 -43 -84 -15 -29 56 0 146 60 182 25 15 26 14 53 -33 15 -27 35 -53 43
-58z"/>
<path d="M3341 7824 l-52 -47 27 -28 c32 -34 32 -34 33 -211 l1 -138 40 0 40
0 1 123 c1 189 2 194 28 216 23 20 25 20 52 4 16 -10 29 -26 30 -38 3 -49 2
-164 -1 -205 -4 -55 7 -107 24 -113 7 -3 26 7 42 22 16 15 44 37 62 50 38 27
41 40 7 33 -23 -4 -25 -2 -26 39 -1 41 -3 72 -12 200 -5 61 -23 104 -50 116
-18 8 -31 3 -74 -30 -59 -44 -70 -42 -102 21 l-17 33 -53 -47z"/>
<path d="M4116 7819 c-60 -55 -70 -74 -32 -60 17 7 31 5 52 -8 l30 -18 -1
-109 c0 -108 0 -109 30 -142 l30 -34 43 43 43 44 -23 17 c-21 16 -23 24 -23
120 0 101 -1 104 -34 151 -19 26 -40 47 -47 47 -7 0 -38 -23 -68 -51z"/>
<path d="M6090 9311 c-32 -31 -33 -70 -3 -103 20 -22 37 -23 68 -2 34 22 34
74 0 109 -14 14 -28 25 -31 25 -3 0 -18 -13 -34 -29z"/>
<path d="M5805 9264 c-5 -1 -23 -5 -39 -9 -15 -3 -25 -9 -21 -13 7 -7 12 -8
40 -11 26 -2 35 -66 19 -129 -18 -69 -44 -144 -56 -156 -4 -6 -8 -19 -8 -29 0
-16 -3 -17 -15 -7 -8 7 -15 16 -15 21 0 4 -13 36 -29 71 -40 88 -51 117 -51
132 0 7 18 23 41 35 48 27 41 41 -22 46 -134 10 -273 26 -278 31 -2 2 -12 -1
-23 -7 -26 -14 -13 -29 26 -29 56 0 84 -33 156 -184 68 -143 140 -314 140
-335 0 -6 4 -11 8 -11 8 0 88 198 85 210 -1 3 3 13 9 23 5 10 11 26 13 35 3 9
18 57 35 107 16 49 30 94 30 99 0 25 53 76 86 82 19 3 33 11 31 18 -4 12 -90
16 -124 4 -12 -4 -23 -3 -25 1 -2 4 -7 7 -13 5z"/>
<path d="M6516 9214 c-9 -8 -16 -19 -16 -24 0 -17 -99 -116 -135 -135 -42 -23
-43 -30 -9 -48 25 -13 27 -20 30 -88 2 -41 5 -87 7 -104 3 -16 8 -52 12 -80 9
-61 26 -97 62 -124 l27 -22 22 28 c13 15 28 40 35 56 6 15 15 27 20 27 5 0 9
7 9 15 0 9 -9 15 -24 15 -43 0 -52 26 -62 176 l-6 92 39 6 c21 4 56 9 78 11
22 2 41 5 43 6 1 1 11 3 22 4 11 1 25 3 30 4 6 0 10 10 10 21 0 19 -7 20 -90
20 -87 0 -90 1 -96 24 -6 25 -1 71 12 114 8 26 1 28 -20 6z"/>
<path d="M6002 9080 c-34 -31 -59 -60 -55 -64 3 -3 11 -2 18 4 13 11 94 -34
96 -53 0 -7 2 -61 3 -122 2 -117 6 -133 41 -171 39 -42 96 -28 144 37 l31 44
-37 12 c-73 26 -78 37 -78 173 l0 121 -37 36 c-21 20 -44 38 -51 39 -8 1 -41
-24 -75 -56z"/>
<path d="M6905 9023 c-32 -8 -78 -47 -109 -92 l-29 -42 22 -20 21 -20 -26 -45
c-37 -63 -39 -162 -4 -194 3 -3 13 -17 23 -32 l17 -27 51 31 c27 18 53 36 56
42 4 6 0 5 -9 -2 -13 -10 -20 -6 -44 29 -21 31 -28 52 -28 90 0 26 3 51 7 55
3 3 34 -5 69 -19 l63 -25 -1 -52 c-1 -49 -16 -76 -36 -64 -4 3 -8 0 -8 -6 0
-6 10 -8 25 -4 20 5 25 2 25 -12 0 -11 10 -32 23 -47 l22 -29 48 52 c26 28 47
54 47 58 0 4 -14 20 -30 36 l-31 29 1 116 c1 64 1 121 1 128 -1 16 -84 64
-118 68 -16 1 -37 1 -48 -2z m35 -103 c31 -24 35 -33 38 -79 3 -44 1 -51 -15
-51 -11 0 -24 5 -31 12 -7 7 -12 9 -12 6 0 -4 -26 8 -57 26 -48 27 -58 37 -55
57 4 33 50 71 76 63 12 -3 37 -18 56 -34z"/>
<path d="M5758 8556 c-10 -8 -38 -10 -82 -6 -37 3 -69 3 -72 1 -2 -3 -12 -6
-22 -7 -121 -15 -155 -29 -214 -92 -90 -96 -108 -167 -72 -285 19 -65 144
-135 247 -141 34 -1 77 1 97 5 84 20 117 21 124 4 3 -9 10 -13 16 -10 13 8 13
178 1 191 -15 14 -17 112 -3 126 13 13 17 214 4 222 -4 2 -15 -1 -24 -8z
m-101 -71 c48 -20 71 -41 94 -87 l19 -37 -22 -15 c-13 -8 -36 -17 -53 -20 -16
-4 -41 -9 -55 -11 -83 -18 -209 -25 -238 -14 -17 7 -20 15 -18 44 11 112 158
188 273 140z m-107 -230 c25 -3 74 -7 109 -11 111 -10 125 -25 87 -89 -54 -92
-184 -108 -277 -34 -41 33 -85 108 -76 132 6 17 20 17 157 2z"/>
<path d="M6224 8516 c-6 -6 -28 -26 -49 -44 l-38 -32 -30 30 c-48 49 -64 48
-157 -15 -99 -66 -94 -61 -85 -74 4 -7 22 -2 51 15 42 25 46 25 69 10 76 -50
80 -189 9 -313 -11 -18 -22 -33 -26 -33 -5 0 -8 -5 -8 -10 0 -17 52 15 88 54
17 19 32 40 32 45 0 5 7 12 17 15 11 4 27 -4 47 -26 17 -18 43 -43 57 -55 l25
-22 34 32 c19 19 46 45 59 60 l24 26 -29 11 c-112 43 -192 150 -156 208 7 10
15 9 41 -4 46 -23 90 -25 131 -5 47 22 49 43 7 63 -19 9 -50 30 -68 46 -25 22
-37 27 -45 18z"/>
<path d="M6565 8423 c-74 -45 -132 -104 -143 -146 -26 -93 7 -196 87 -276 55
-55 92 -54 161 5 61 52 90 83 90 96 0 13 -18 10 -22 -4 -3 -9 -27 -12 -75 -12
-60 1 -76 5 -100 25 -50 40 -67 71 -69 119 -2 49 12 84 45 114 21 19 22 19 44
-1 29 -27 57 -40 82 -37 26 2 75 22 75 30 0 3 -26 33 -58 65 l-58 59 -59 -37z"/>
<path d="M6974 8380 c-67 -38 -118 -93 -143 -151 -53 -128 18 -293 136 -319
31 -7 38 -4 69 26 19 18 48 42 63 53 37 27 74 112 77 181 5 90 -47 182 -127
225 -23 12 -30 11 -75 -15z m9 -82 c12 -6 28 -17 35 -24 7 -8 21 -19 30 -26
32 -24 41 -55 38 -120 -4 -62 -17 -110 -38 -135 -13 -17 -51 3 -94 49 -78 82
-88 180 -26 251 18 20 26 21 55 5z"/>
<path d="M7242 8212 c-26 -18 -2 -38 48 -41 50 -2 69 9 47 27 -18 15 -80 24
-95 14z"/>
<path d="M7240 8134 c-12 -13 -11 -17 1 -25 8 -5 21 -9 29 -10 8 0 26 -2 38
-3 27 -3 40 18 24 37 -16 19 -77 20 -92 1z"/>
<path d="M5314 7968 c-2 -3 -2 -80 2 -170 3 -89 6 -206 8 -258 3 -103 12 -127
59 -155 28 -17 29 -17 45 6 9 13 34 40 55 60 39 37 38 52 -1 44 -43 -8 -47 14
-47 254 l-1 225 -58 0 c-32 1 -60 -2 -62 -6z"/>
<path d="M6156 7932 c-24 -39 -106 -112 -125 -112 -20 0 -11 -19 17 -35 26
-16 27 -18 22 -88 -13 -171 1 -247 51 -272 53 -28 80 -19 132 43 31 38 28 56
-8 40 -19 -8 -29 -8 -47 4 -21 14 -22 23 -23 124 -1 60 3 115 8 122 5 6 27 12
49 12 32 0 39 3 36 17 -2 10 -12 19 -23 21 -53 8 -72 23 -69 50 7 49 10 61 17
68 11 11 8 44 -3 44 -5 0 -20 -17 -34 -38z"/>
<path d="M5756 7873 c-50 -27 -123 -114 -124 -148 0 -11 4 -34 9 -51 9 -28 5
-39 -26 -90 -39 -66 -44 -107 -19 -160 28 -59 38 -61 88 -17 24 21 61 48 81
58 34 19 37 19 46 2 6 -9 22 -23 37 -31 26 -14 29 -13 52 17 14 17 40 46 58
65 34 36 35 60 1 41 -20 -10 -41 -2 -62 26 -4 6 -7 59 -6 119 l1 108 -42 39
c-47 43 -53 45 -94 22z m14 -111 c24 -24 28 -36 26 -78 -2 -45 -4 -49 -29 -52
-35 -4 -94 24 -100 49 -13 49 18 109 55 109 11 0 32 -13 48 -28z m25 -200 c0
-29 -7 -39 -37 -59 l-37 -23 -25 25 c-21 21 -23 29 -15 57 5 18 9 33 9 33 0 0
24 1 53 2 l53 1 -1 -36z"/>
<path d="M6363 7765 c-31 -28 -42 -44 -32 -45 9 0 27 -9 40 -19 23 -18 25 -26
27 -123 1 -56 5 -115 8 -129 5 -27 55 -79 75 -79 5 0 44 16 86 35 42 19 77 34
77 33 21 -43 33 -60 51 -72 20 -13 25 -12 53 13 34 28 40 47 20 54 -10 3 -13
39 -13 138 l0 134 -44 48 c-24 26 -47 47 -51 47 -7 0 -100 -89 -100 -96 0 -2
3 -3 8 -3 24 4 53 -3 66 -17 20 -20 23 -171 3 -198 -15 -21 -83 -24 -128 -6
-27 12 -30 17 -27 47 2 18 0 33 -5 33 -4 0 -5 5 -1 11 3 6 8 41 9 78 2 54 -2
74 -21 107 -13 23 -30 44 -38 47 -9 4 -34 -11 -63 -38z"/>
<path d="M6885 7695 l-60 -54 31 -1 c17 0 43 -9 58 -21 l26 -20 0 -155 0 -154
50 1 50 2 0 91 c0 50 0 99 0 109 0 9 0 28 0 42 0 46 3 60 13 73 16 20 35 14
76 -23 38 -34 56 -42 63 -27 2 4 22 22 46 40 42 34 47 52 12 52 -10 0 -20 3
-22 8 -1 4 -21 22 -42 39 l-40 32 -48 -35 -48 -35 -45 45 c-25 25 -48 46 -52
46 -5 0 -35 -25 -68 -55z"/>
<path d="M5047 6534 c-1 -2 -14 -5 -29 -8 -35 -6 -94 -34 -109 -52 -9 -11 -9
-17 0 -28 13 -15 28 -15 74 3 34 13 47 14 29 2 -20 -12 -17 -79 4 -102 16 -18
16 -19 -5 -19 -12 0 -30 5 -41 12 -29 19 -38 -1 -10 -22 38 -30 88 -43 136
-36 46 6 291 126 258 126 -10 0 -66 27 -124 60 -58 33 -112 60 -120 61 -8 0
-25 2 -38 3 -12 2 -23 1 -25 0z m211 -142 c2 -6 -3 -12 -12 -12 -8 0 -35 -11
-60 -25 -56 -31 -62 -31 -42 0 20 30 20 55 1 81 -8 10 -15 22 -15 26 0 12 123
-56 128 -70z"/>
</g>
</svg>
